<?xml version="1.0" encoding="UTF-8" standalone="no" ?>
<!DOCTYPE svg PUBLIC "-//W3C//DTD SVG 1.1//EN" "http://www.w3.org/Graphics/SVG/1.1/DTD/svg11.dtd">
<svg xmlns="http://www.w3.org/2000/svg" xmlns:xlink="http://www.w3.org/1999/xlink" version="1.1" width="1080" height="1080" viewBox="0 0 1080 1080" xml:space="preserve">
<desc>Created with Fabric.js 5.2.4</desc>
<defs>
</defs>
<rect x="0" y="0" width="100%" height="100%" fill="transparent"></rect>
<g transform="matrix(1 0 0 1 540 540)" id="037b9e4a-2ac9-44d6-abf9-2bae9197d984"  >
<rect style="stroke: none; stroke-width: 1; stroke-dasharray: none; stroke-linecap: butt; stroke-dashoffset: 0; stroke-linejoin: miter; stroke-miterlimit: 4; fill: rgb(255,255,255); fill-rule: nonzero; opacity: 1; visibility: hidden;" vector-effect="non-scaling-stroke"  x="-540" y="-540" rx="0" ry="0" width="1080" height="1080" />
</g>
<g transform="matrix(1 0 0 1 540 540)" id="2812c09c-2c5e-422c-a30c-64b309f6840f"  >
</g>
<g transform="matrix(24.3 0 0 26.67 540 540)" id="811e27dc-14d6-4e7e-bddf-f4b6f1014fb0"  >
<path style="stroke: rgb(0,0,0); stroke-width: 0; stroke-dasharray: none; stroke-linecap: butt; stroke-dashoffset: 0; stroke-linejoin: miter; stroke-miterlimit: 4; fill: rgb(255,255,255); fill-rule: nonzero; opacity: 1;" vector-effect="non-scaling-stroke"  transform=" translate(-19.32, -19.32)" d="M 7.714 0.21 C 7.437 0.071 6.882 0 6.573 0 C 3.39 0 0.451 2.586 0.451 5.646 L 0.451 32.998 C 0.451 36.059999999999995 3.39 38.646 6.5729999999999995 38.646 C 6.880999999999999 38.646 7.31 38.575 7.585999999999999 38.438 L 33.406 25.671000000000003 C 36.562 24.101000000000003 38.194 21.964000000000002 38.194 19.321000000000005 C 38.194 17.505000000000006 37.362 14.928000000000004 33.34 12.973000000000006 L 7.714 0.21 z M 34.225 19.322 C 34.225 19.733999999999998 34.225 20.826999999999998 31.689 22.09 L 6.189 34.605000000000004 C 5.382 34.43000000000001 4.4510000000000005 33.732000000000006 4.4510000000000005 32.999 L 4.4510000000000005 5.646 C 4.4510000000000005 4.915 5.381 4.217 6.187 4.042 L 31.465 16.563000000000002 C 32.668 17.147 34.225 18.1 34.225 19.322 z" stroke-linecap="round" />
</g>
</svg>